<?xml version="1.0" encoding="utf-8"?>
<!-- Generator: Adobe Illustrator 22.1.0, SVG Export Plug-In . SVG Version: 6.00 Build 0)  -->
<svg version="1.1" id="Layer_1" xmlns="http://www.w3.org/2000/svg" xmlns:xlink="http://www.w3.org/1999/xlink" x="0px" y="0px"
	 viewBox="0 0 300 225" style="enable-background:new 0 0 300 225;" xml:space="preserve">
<style type="text/css">
	.st0{fill:#F4F5F7;}
	.st1{clip-path:url(#SVGID_2_);}
	.st2{fill:#D6D6D6;}
</style>
<title>thumbnail-small</title>
<rect class="st0" width="300" height="225"/>
<g>
	<g>
		<defs>
			<rect id="SVGID_1_" x="98.5" y="72.9" width="105" height="84"/>
		</defs>
		<clipPath id="SVGID_2_">
			<use xlink:href="#SVGID_1_"  style="overflow:visible;"/>
		</clipPath>
		<g class="st1">
			<path class="st2" d="M193.9,73.1h-68c-5.2,0-9.4,4.2-9.4,9.4v3.3l-11,3c-2.4,0.6-4.5,2.2-5.8,4.3c-1.2,2.2-1.6,4.8-0.9,7.2
				l13.2,49.3c0.6,2.4,2.2,4.5,4.3,5.8c1.4,0.9,3.1,1.3,4.7,1.3c0.8,0,1.6-0.1,2.5-0.3l43.2-11.6h27.1c5.2,0,9.4-4.3,9.4-9.4V82.5
				C203.3,77.3,199,73.1,193.9,73.1L193.9,73.1z M122.6,152.7c-1.5,0.4-3,0.2-4.3-0.6c-1.3-0.7-2.3-2-2.6-3.5l-13.2-49.3
				c-0.4-1.5-0.2-3,0.6-4.3c0.7-1.3,2-2.3,3.5-2.6l10-2.7v45.7c0,5.2,4.2,9.4,9.4,9.4h26.2L122.6,152.7z M199.5,135.4
				c0,3.1-2.5,5.7-5.7,5.7h-68c-3.1,0-5.7-2.5-5.7-5.7V82.5c0-3.1,2.5-5.7,5.7-5.7h68c3.1,0,5.7,2.5,5.7,5.7v26.8l-9-9
				c-1.4-1.5-3.7-1.5-5.2-0.1l-0.1,0.1l-21.6,21.5l-0.1-0.1l-11-11c-1.5-1.4-3.8-1.4-5.3,0l-9.3,9.3c-0.7,0.8-0.6,2,0.2,2.6
				c0.7,0.6,1.7,0.6,2.4,0l9.3-9.3l11,11l0.1,0.1l-7.6,7.6c-0.7,0.7-0.8,1.9-0.1,2.6c0,0,0,0,0.1,0.1c0.7,0.7,1.9,0.8,2.6,0.1
				c0,0,0,0,0.1-0.1l31.9-31.8l11.2,11.2c0.1,0.1,0.3,0.2,0.4,0.3L199.5,135.4z"/>
		</g>
	</g>
</g>
<path class="st2" d="M133.6,124.6l-1.9,1.9c-0.7,0.7-0.8,1.8-0.1,2.6c0,0,0,0,0.1,0.1c0.7,0.7,1.8,0.8,2.6,0.1c0,0,0,0,0.1-0.1
	l1.9-1.9c0.7-0.8,0.6-2-0.2-2.6C135.3,124,134.3,124,133.6,124.6z"/>
<path class="st2" d="M146.7,93.8c0-5.2-4.2-9.4-9.4-9.4s-9.4,4.2-9.4,9.4c0,5.2,4.2,9.4,9.4,9.4C142.4,103.2,146.7,99,146.7,93.8z
	 M137.2,99.5c-3.1,0-5.7-2.5-5.7-5.7s2.5-5.7,5.7-5.7c3.1,0,5.7,2.5,5.7,5.7C142.9,96.9,140.4,99.5,137.2,99.5z"/>
</svg>
